# xmcd
#
# Track frame offsets:
#	225
#	21898
#	42766
#	60326
#	102456
#	130745
#	152138
#	173772
#	198564
#	212048
#	232245
#	248210
#	268162
#	288010
#	303195
#	321122
#
# Disc length: 4672 seconds
#
# Revision: 1
# Processed by: cddbd v1.4PL0 Copyright (c) Steve Scherf et al.
# Submitted via: EasyCDDAExtractor 6.2.0.3
#
DISCID=e1123d10
DTITLE=Various Artist - Blues.Lv
DYEAR=2003
DGENRE=Blues
TTITLE0=Maxwell Street Blues Combo (Lbb) - Big Boss Man
TTITLE1=Maxwell Street Blues Combo (Lbb) - Honest I Do
TTITLE2=Maxwell Street Blues Combo (Lbb) - I'm A Love You
TTITLE3=Maxwell Street Blues Combo (Lbb) - Baby What You Want Me To Do
TTITLE4=Maxwell Street Blues Combo (Lbb) - Baby What's Wrong
TTITLE5=Blues Cake - You Rascal You
TTITLE6=Blues Cake - I Miss You Baby
TTITLE7=Blues Cake - Mr. Pitiful
TTITLE8=Blues Cake - Irresistable You
TTITLE9=Blues Cake - Sophisticated Mama
TTITLE10=Hot Dogs - Mellow Down Easy
TTITLE11=Hot Dogs - Mean Old World
TTITLE12=Hot Dogs - I Wonder Why
TTITLE13=Hot Dogs - My Babe
TTITLE14=Hot Dogs - Caledonia
TTITLE15=Jam Bonus Track - Drunken Hearted Man
EXTD=Ripped by Delta for [DML] archive.\nPresentation CDs.\n2022FRI24012003\nL
EXTD=ive session 4 of may 2002, Riga.\n
EXTT0=
EXTT1=
EXTT2=
EXTT3=
EXTT4=
EXTT5=
EXTT6=
EXTT7=
EXTT8=
EXTT9=
EXTT10=
EXTT11=
EXTT12=
EXTT13=
EXTT14=
EXTT15=
PLAYORDER=
